<svg width="32" height="33" viewBox="0 0 32 33" fill="none" xmlns="http://www.w3.org/2000/svg"><path d="M10.1667 16.8333C10.1667 16.8333 12.3542 19.3333 16 19.3333C19.6458 19.3333 21.8333 16.8333 21.8333 16.8333M20.5833 8.5H20.6M11.4167 8.5H11.4333M7.66667 26V29.8925C7.66667 30.7806 7.66667 31.2246 7.84871 31.4527C8.00704 31.651 8.24712 31.7664 8.5009 31.7661C8.79271 31.7658 9.13945 31.4884 9.83293 30.9337L13.8087 27.7531C14.6209 27.1033 15.0269 26.7784 15.4791 26.5474C15.8803 26.3425 16.3074 26.1927 16.7487 26.1021C17.2461 26 17.7662 26 18.8062 26H23C25.8003 26 27.2004 26 28.27 25.455C29.2108 24.9757 29.9757 24.2108 30.455 23.27C31 22.2004 31 20.8003 31 18V9C31 6.19974 31 4.79961 30.455 3.73005C29.9757 2.78924 29.2108 2.02433 28.27 1.54497C27.2004 1 25.8003 1 23 1H9C6.19974 1 4.79961 1 3.73005 1.54497C2.78924 2.02433 2.02433 2.78924 1.54497 3.73005C1 4.79961 1 6.19974 1 9V19.3333C1 20.8833 1 21.6583 1.17037 22.2941C1.63271 24.0196 2.98044 25.3673 4.7059 25.8296C5.34174 26 6.11671 26 7.66667 26ZM21.4167 8.5C21.4167 8.96024 21.0436 9.33333 20.5833 9.33333C20.1231 9.33333 19.75 8.96024 19.75 8.5C19.75 8.03976 20.1231 7.66667 20.5833 7.66667C21.0436 7.66667 21.4167 8.03976 21.4167 8.5ZM12.25 8.5C12.25 8.96024 11.8769 9.33333 11.4167 9.33333C10.9564 9.33333 10.5833 8.96024 10.5833 8.5C10.5833 8.03976 10.9564 7.66667 11.4167 7.66667C11.8769 7.66667 12.25 8.03976 12.25 8.5Z" stroke="white" stroke-width="2" stroke-linecap="round" stroke-linejoin="round"/></svg>